<?xml version="1.0" encoding="UTF-8"?>
<svg id="Layer_2" data-name="Layer 2" xmlns="http://www.w3.org/2000/svg" viewBox="0 0 350.09 39.52">
  <defs>
    <style>
      .cls-1 {
        fill: #4bd3ff;
      }

      .cls-2 {
        fill: #9072e9;
      }

      .cls-3 {
        fill: #ffffff;
      }

      .cls-4 {
        fill: #1599ff;
      }

      .cls-5 {
        fill: #ff850a;
      }

      .cls-6 {
        fill: #7335ff;
      }
    </style>
  </defs>
  <g id="Layer_1-2" data-name="Layer 1">
    <g>
      <path class="cls-6" d="m286.63,4.31c-.01,1.7-.04,3.39-.07,5.08-1.55-.05-3.1-.08-4.66-.08-2.43,0-4.86.06-7.26.19,1.73-2.75,3.22-5.16,3.77-6.18.5-.92.85-1.62,1.09-2.11.25-.53.77-.84,1.35-.82,1.02.04,2.67.25,3.92.43,1,.14,1.76.97,1.82,1.98.03.54.05,1.09.04,1.51Z"/>
      <path class="cls-6" d="m307.13,11.57c-2.71-.5-5.43-.91-8.18-1.23l-5.59-8.98c-.31-.48-.19-.72.39-.67,2.07.15,4.12.13,6.19-.01.32-.03.6.08.77.37.91,1.5,3.94,6.47,6.42,10.52Z"/>
      <path class="cls-3" d="m78.27,19.97c-.07-11.24,8.3-19.68,19.57-19.76,11.16-.08,19.74,8.32,19.81,19.39.07,11.29-8.34,19.81-19.61,19.88-11.3.07-19.73-8.23-19.78-19.5h.01Zm6.48-.1c.1,8.06,5.75,13.76,13.51,13.64,7.53-.12,13.03-6.08,12.91-13.98-.1-7.66-5.96-13.55-13.38-13.45-7.42.09-13.13,6.14-13.04,13.79Z"/>
      <path class="cls-3" d="m166.53,24.86c0-4.26.03-8.52-.01-12.77,0-.82.17-1.14,1.06-1.08,1.41.08,2.85.08,4.26-.03.95-.07,1.12.26,1.12,1.14-.04,6.36-.03,12.73-.03,19.09,0,1.67,0,1.7,1.74,1.67,3.04-.04,6.12.3,9.15-.25,6.6-1.18,10.65-6.08,10.62-12.73-.03-6.83-4-11.67-10.6-12.92-1.96-.38-3.95-.29-5.92-.29-3.44,0-6.89,0-10.32.08-.88.03-1.08-.22-1.05-1.07.08-1.37.03-2.76,0-4.13,0-.5.07-.8.69-.77,5.63.13,11.28-.34,16.88.26,9.03.95,16.01,8.1,16.66,16.95.72,9.84-4.68,17.59-13.94,20.04-1.92.51-3.87.78-5.85.77-4.47-.03-8.95-.05-13.42-.03-.8,0-1.1-.14-1.08-1.03.05-4.3.03-8.6.03-12.9h.03-.01Z"/>
      <path class="cls-3" d="m124.97,13.32c0-3.79.03-7.57-.03-11.36,0-.86.13-1.23,1.1-1.16,1.41.09,2.85.09,4.26,0,.97-.07,1.08.3,1.08,1.16-.03,6.46,0,12.9.01,19.35,0,1.69.09,3.36.5,4.99,1.15,4.64,4.76,7.32,9.57,7.13,4.89-.18,8.04-3.02,8.94-8.02.21-1.19.29-2.39.29-3.59.01-6.53.07-13.08.01-19.61,0-1.24.38-1.5,1.52-1.42,1.37.09,2.76.07,4.13,0,.71-.03.86.21.86.88-.04,7.27-.04,14.53-.08,21.81,0,1.82-.38,3.58-.91,5.32-2.64,8.55-10.23,11.3-16.95,10.64-8.95-.89-13.47-6.85-14.11-14.49-.33-3.84-.16-11.6-.2-11.6h.01Z"/>
      <path class="cls-3" d="m7.67,15.81C10.96,3.14,24.33-3.45,36.05,1.83c2.26,1.02,4.23,2.43,5.81,4.39.48.6.48.97-.1,1.48-1.11.95-2.21,1.92-3.19,3.01-.6.67-.81.35-1.24-.12-4.36-4.78-11.28-5.83-16.82-2.59-5.34,3.12-7.75,10.15-5.63,16.5,1.99,5.98,7.63,9.57,13.93,8.95,3.5-.34,6.47-1.69,8.79-4.33.59-.68.95-.57,1.52-.03.88.88,1.79,1.75,2.74,2.54.63.52.57.88.07,1.44-3.36,3.72-7.57,5.71-12.52,6.19-2.68.26-5.32-.17-7.97-.43-1.37-.99-3.08-1.24-4.52-2.2-6.17-4.1-9.54-9.63-9.34-17.17.03-.97.26-1.96-.09-2.91.05-.17.1-.33.16-.5.12-.05.14-.13.07-.25h-.04Z"/>
      <path class="cls-3" d="m49.27,19.71c0-5.93.04-11.86-.04-17.8,0-1.05.31-1.22,1.22-1.16,1.33.08,2.67.1,4,.01.99-.07,1.19.26,1.19,1.22-.03,9.8.03,19.61-.04,29.41,0,1.36.41,1.59,1.63,1.58,5.89-.05,11.79,0,17.68-.01.86,0,1.23.16,1.16,1.11-.09,1.28-.05,2.57,0,3.87.03.69-.21.86-.86.86-8.35-.01-16.69-.03-25.04,0-.86,0-.84-.41-.84-1.02,0-6.02-.05-18.06-.07-18.06h0Z"/>
      <path class="cls-5" d="m7.45,16.56c.35.95.12,1.95.09,2.91-.2,7.54,3.18,13.07,9.34,17.17,1.44.95,3.15,1.2,4.52,2.2-.25.04-.5.13-.74.13-6.57-.03-13.15-.07-19.71-.08-.68,0-1.18.07-.85-.95,2.18-6.78,4.27-13.59,6.77-20.25.14-.39.18-.85.57-1.11h0Z"/>
      <path class="cls-6" d="m259.38,11.1c-2.15.34-4.29.74-6.42,1.18l-.2-.31v.35c-2.25.47-4.48,1-6.69,1.57l-.04-12.27c0-.71,1.18-.85,1.31-.85,1.8.03,3.89-.51,5.31.24,1.35.72,2.01,2.75,2.95,4.23.73,1.15,2.27,3.53,3.78,5.86Z"/>
      <path class="cls-5" d="m350.09.96c-6.78,5.07-20.52,15.35-20.52,15.35,0,0,1.63-3.57,2.46-5.15,1.65-3.2,3.42-6.34,5.1-9.53.39-.74.9-1.12,1.7-1.12h10.05c.37,0,.76.04,1.22.43h0Z"/>
     
      <path class="cls-6" d="m223.37.79h.01c-4.47,0-8.95,0-13.42,0-.65,0-1.15-.05-1.15.89.04,3.74.03,7.49,0,11.22,0,.61.21.82.82.82,1.62-.03,3.25-.04,4.89.01.8.03.94-.33.91-1.01-.04-1.37-.04-2.76-.04-4.13.01-2.14-.25-1.88,1.82-1.88,5.87,0,14.39,0,20.57.02.62,0,1.12-.5,1.12-1.12V1.9c0-.62-.5-1.13-1.12-1.12-4.25.03-10.59.01-14.41.01Z"/>
      <path class="cls-6" d="m232.33,18.21c-3.61,1.34-7.16,2.82-10.65,4.43-2.73,0-4.71,0-5.1,0-.9,0-1.19.36-1.19,1.32v1.79c-2.22,1.14-4.4,2.35-6.56,3.62-.02-4.82-.05-9.97-.08-11.6,0-.76.51-.66.98-.66,0,0,10.97.02,20.42.03.76,0,1.45.31,1.95.81.08.08.16.17.23.27Z"/>
      <path class="cls-1" d="m231.68,32.9c-2.73,1.87-5.4,3.88-8.01,6.01l-13.45-.02c-.74,0-1.34-.6-1.35-1.34,0-1.71-.02-4.87-.04-8.19,2.16-1.27,4.34-2.48,6.56-3.62-.01.74-.01,1.62-.01,2.5-.01,1.83-.02,3.7-.03,4.57,1.44.02,9.32.05,16.33.09Z"/>
      <path class="cls-4" d="m238.9,34.07v3.74c0,.62-.5,1.12-1.13,1.12l-14.1-.02c2.61-2.13,5.28-4.14,8.01-6.01,2.2.01,4.31.03,6.11.04.62,0,1.11.51,1.11,1.13Z"/>
      <path class="cls-1" d="m232.9,19.89c0,1.53-1.24,2.77-2.77,2.76-3.02,0-6.03-.01-8.45-.01,3.49-1.61,7.04-3.09,10.65-4.43.35.46.57,1.05.57,1.68Z"/>
      <path class="cls-1" d="m252.79,21.44c-2.26.91-4.49,1.91-6.69,2.99l-.03-10.54c2.21-.57,4.44-1.1,6.69-1.57.02,1.17.02,4.86.03,9.12Z"/>
      <path class="cls-1" d="m263.67,17.75c-2.03.55-4.05,1.18-6.05,1.88l-4.66-7.35c2.13-.44,4.27-.84,6.42-1.18,1.95,3.04,3.86,5.99,3.86,5.99,0,0,.17.26.43.66Z"/>
      <path class="cls-4" d="m252.83,37.66c0,.93-.22,1.32-1.22,1.28-1.5-.08-3-.04-4.5-.01-.62,0-.96-.15-.97-.85l-.04-13.65c2.2-1.08,4.43-2.08,6.69-2.99.01,6.19.02,13.59.04,16.22Z"/>
      <path class="cls-4" d="m277.93,14.95c-.32.49-.54.83-.54.84-2.78,4.32-5.57,8.65-8.36,12.97-.44.68-.32.42-1.28,2.08-.85,1.47-2.19,1.38-2.96.08l-7.17-11.29c2-.7,4.02-1.33,6.05-1.88.6.91,1.66,2.56,2.21,3.58.47.86.76.96,1.31.02.39-.69,1.68-2.73,3.26-5.22,2.47-.49,4.96-.89,7.48-1.18Z"/>
      <path class="cls-1" d="m274.64,9.5s4.83-.19,7.26-.19c1.56,0,3.11.03,4.66.08,0,.45-.02.9-.03,1.35v.04c0,.96.01,2.17.01,3.56-2.23.05-4.44.19-6.64.4v-.43c0-1-.03-2.06-.07-2.19h0s-.03-.01-.03-.01c-.51.77-1.33,2.02-1.87,2.84-2.52.29-5.01.69-7.48,1.18,1.31-2.07,4.19-6.63,4.19-6.63Z"/>
      <path class="cls-4" d="m286.62,37.7c.01.85-.17,1.25-1.14,1.21-1.59-.06-3.18-.04-4.77-.01-.61,0-.95-.13-.94-.85.06-7.22.07-14.45.11-21.68,0-.09.01-.8.02-1.63,2.2-.21,4.41-.35,6.64-.4.02,7.87.05,21.17.08,23.36Z"/>
      <path class="cls-4" d="m322.95,13.08c-.42.64-.83,1.28-1.24,1.91-.97,1.5-1.9,2.94-2.73,4.23-1.42,2.2-2.55,3.94-3.06,4.71-.51.78-.8,1.54-.79,2.49.02,1.81,0,7.28-.03,12.36,0,.3-.24.53-.53.53h-5.71c-.29,0-.53-.24-.53-.53.02-5.08.03-10.52.04-12.12.01-.77-.21-1.53-.61-2.18l-5.76-9.25-.92-1.48c2.85,1.45,5.84,2.32,8.93,2.51.12.2.22.37.31.51.21.34.33.54.33.54,1.42,1.81,1.57,1.96,2.56.18.11-.18.22-.39.34-.61,0-.01.16-.28.44-.73,2.08-.25,4.11-.8,6.07-1.62.98-.42,1.95-.9,2.89-1.45Z"/>
      <path class="cls-1" d="m310.01,16.26c-3.09-.19-6.08-1.06-8.93-2.51l-2.13-3.41c2.75.32,5.47.73,8.18,1.23,1.18,1.92,2.23,3.65,2.88,4.69Z"/>
      <path class="cls-6" d="m330.55,1.44c-1.31,1.95-4.51,6.86-7.6,11.64-.94.55-1.91,1.03-2.89,1.45-1.96.82-3.99,1.37-6.07,1.62.38-.62.97-1.6,1.68-2.77,2.37-3.91,6.01-9.92,7.05-11.64.44-.71.91-1.01,1.76-.97,1.84.07,3.69.01,5.54.03.4,0,1.04-.09.53.64Z"/>
    </g>
  </g>
</svg>