<?xml version="1.0" encoding="UTF-8"?>
<svg id="Layer_2" data-name="Layer 2" xmlns="http://www.w3.org/2000/svg" xmlns:xlink="http://www.w3.org/1999/xlink" viewBox="0 0 350.09 232.53">
  <defs>
    <style>
      .cls-1 {
        fill: url(#linear-gradient-2);
      }

      .cls-2 {
        fill: #fff;
        opacity: .9;
      }

      .cls-3 {
        fill: url(#linear-gradient-6);
      }

      .cls-4 {
        fill: #4bd3ff;
      }

      .cls-5 {
        filter: url(#drop-shadow-1);
      }

      .cls-6 {
        fill: #1599ff;
      }

      .cls-7 {
        fill: url(#linear-gradient-10);
      }

      .cls-8 {
        fill: #ff850a;
      }

      .cls-9 {
        fill: url(#linear-gradient-5);
      }

      .cls-10 {
        fill: url(#linear-gradient-7);
      }

      .cls-11 {
        fill: url(#linear-gradient-9);
      }

      .cls-12 {
        fill: #7335ff;
      }

      .cls-13 {
        fill: url(#linear-gradient-3);
      }

      .cls-14 {
        fill: url(#linear-gradient);
      }

      .cls-15 {
        fill: url(#linear-gradient-4);
      }

      .cls-16 {
        fill: url(#linear-gradient-8);
      }
    </style>
    <filter id="drop-shadow-1" filterUnits="userSpaceOnUse">
      <feOffset dx="7" dy="7"/>
      <feGaussianBlur result="blur" stdDeviation="5"/>
      <feFlood flood-color="#000" flood-opacity=".75"/>
      <feComposite in2="blur" operator="in"/>
      <feComposite in="SourceGraphic"/>
    </filter>
    <linearGradient id="linear-gradient" x1="174.76" y1="161.25" x2="177.11" y2="-71.96" gradientUnits="userSpaceOnUse">
      <stop offset="0" stop-color="#fff"/>
      <stop offset=".57" stop-color="#651fcb"/>
      <stop offset="1" stop-color="#116bfc"/>
    </linearGradient>
    <linearGradient id="linear-gradient-2" x1="174.81" y1="161.26" x2="177.16" y2="-71.96" xlink:href="#linear-gradient"/>
    <linearGradient id="linear-gradient-3" x1="174.69" y1="161.25" x2="177.03" y2="-71.96" xlink:href="#linear-gradient"/>
    <linearGradient id="linear-gradient-4" x1="174.61" y1="161.25" x2="176.96" y2="-71.96" xlink:href="#linear-gradient"/>
    <linearGradient id="linear-gradient-5" x1="174.1" y1="161.25" x2="176.45" y2="-71.97" xlink:href="#linear-gradient"/>
    <linearGradient id="linear-gradient-6" x1="-47.22" y1="74.23" x2="286.95" y2="70.31" gradientUnits="userSpaceOnUse">
      <stop offset="0" stop-color="#0d6efd"/>
      <stop offset="1" stop-color="#7b1fe4"/>
    </linearGradient>
    <linearGradient id="linear-gradient-7" x1="-47.82" y1="23.05" x2="286.35" y2="19.14" xlink:href="#linear-gradient-6"/>
    <linearGradient id="linear-gradient-8" x1="-47.36" y1="61.99" x2="286.81" y2="58.07" xlink:href="#linear-gradient-6"/>
    <linearGradient id="linear-gradient-9" x1="-47.59" y1="43.11" x2="286.59" y2="39.2" xlink:href="#linear-gradient-6"/>
    <linearGradient id="linear-gradient-10" x1="-44.42" y1="99.1" x2="282.62" y2="95.27" xlink:href="#linear-gradient-6"/>
  </defs>
  <g id="Layer_1-2" data-name="Layer 1">
    <g class="cls-5">
      <g>
        <g>
          <rect class="cls-14" x="163.56" y="130.04" width="22.97" height="5.24" rx="1.17" ry="1.17"/>
          <path class="cls-1" d="m182.24,137.58c-.27,1.77-1.59,3.29-3.47,4.16-1.09.52-2.37.81-3.73.81s-2.64-.29-3.73-.81c-1.88-.87-3.2-2.39-3.47-4.16.09-.19.27-.31.49-.31h13.41c.22,0,.4.12.49.31Z"/>
          <rect class="cls-13" x="165.27" y="123.03" width="19.55" height="5.24" rx="1.17" ry="1.17"/>
          <rect class="cls-15" x="160.94" y="114.92" width="28.21" height="6.45" rx="1.17" ry="1.17"/>
          <path class="cls-9" d="m196.86,46.36c-11.46-12-32.26-12-43.72,0-5.59,5.58-8.74,13.41-8.65,21.57.05,1.6.21,3.18.49,4.73.23,1.31.54,2.59.93,3.85,1.02,3.39,2.6,6.58,4.68,9.42.24.34.48.68.72,1.02.02.02.04.06.06.09.31.41.6.84.89,1.27.1.14.19.28.28.42,4.02,6.15,6.49,13.79,6.71,22.1v.02c-.01.45-.01,1.19-.01,1.78,0,.52.42.93.94.93h29.77c.52,0,.94-.42.94-.94v-1.25c.14-8.69,2.7-16.7,6.98-23.03,0,0,.21-.39.35-.59.41-.59.85-1.22,1.3-1.88,2.02-2.76,3.56-5.85,4.59-9.13.71-2.23,1.18-4.55,1.39-6.91.06-.65.1-1.31.12-1.97.04-8.15-3.13-15.95-8.75-21.49Zm-.02,37.32l-1.15,1.74-.4.67c-4.29,6.4-7.02,14.33-7.56,22.97l-.06,1.07h-1.83v-17.59l5.67-9.07-.02-7.68c0-.28.18-.52.44-.61,2.1-.82,3.6-2.86,3.6-5.26,0-3.33-2.88-5.98-6.29-5.6-2.6.29-4.7,2.42-4.97,5.01-.27,2.63,1.26,4.93,3.51,5.84.25.1.43.33.43.6l-.06,7.71-5.58,9.07v17.59h-1.89v-33.71l-3.16-8.26-.06-7.71c0-.27.18-.51.44-.6.5-.2.96-.47,1.37-.8h0c1.46-1.14,2.34-2.99,2.13-5.04-.26-2.6-2.37-4.72-4.97-5.01-3.41-.38-6.29,2.27-6.29,5.6,0,1.88.91,3.53,2.31,4.55.4.29.82.53,1.28.71.26.1.44.33.44.61l-.02,7.68,3.25,8.26v33.71h-4.84v-23.47c0-.27.18-.51.44-.6,2.1-.82,3.6-2.86,3.6-5.26,0-3.33-2.89-5.98-6.3-5.6-2.6.29-4.72,2.44-4.97,5.05-.25,2.64,1.31,4.94,3.57,5.82.26.1.44.33.44.6v23.47h-1.74v-17.59l-5.58-9.07-.06-7.71c0-.27.17-.51.43-.6,2.25-.9,3.78-3.21,3.51-5.84-.27-2.6-2.38-4.72-4.97-5.01-3.41-.38-6.3,2.27-6.3,5.6,0,2.4,1.5,4.44,3.6,5.26.26.1.44.33.44.61l-.02,7.68,5.66,9.07v17.59h-1.84c-.35-9.2-3.17-17.64-7.74-24.38l-1.39-2.08c-3.26-4.15-5.05-9.09-5.43-14.11-.58-7.71,2.18-15.59,8.06-21.03,9.94-10.42,28.31-10.42,38.24,0,5.27,4.88,8.04,11.7,8.13,18.62.1,5.83-1.71,11.71-5.49,16.53Zm-6.97-11.34c-1.34,0-2.42-1.08-2.42-2.42s1.08-2.42,2.42-2.42,2.42,1.09,2.42,2.42-1.08,2.42-2.42,2.42Zm-14.09-15.32c-1.34,0-2.42-1.08-2.42-2.42s1.08-2.42,2.42-2.42,2.42,1.09,2.42,2.42-1.08,2.42-2.42,2.42Zm-4.84,26.2c-1.34,0-2.42-1.08-2.42-2.42s1.08-2.42,2.42-2.42,2.42,1.08,2.42,2.42-1.08,2.42-2.42,2.42Zm-10.67-10.88c-1.33,0-2.42-1.08-2.42-2.42s1.09-2.42,2.42-2.42,2.42,1.09,2.42,2.42-1.07,2.42-2.42,2.42Z"/>
        </g>
        <path class="cls-3" d="m273.38,73.48h0c-5.7-9.76-13.76-16.42-24.42-19.97-4.36-1.44-8.86-2.47-13.41-1.87-2.16.29-2.52-.27-2.77-2.08-1.01-7.87-3.64-15.13-7.88-21.9-6.7-10.7-15.72-18.53-27.36-23.29-9.82-4.02-20.04-5.2-30.55-3.81-7.47.82-14.43,3.23-20.92,6.96-12.26,7.04-20.46,17.55-25.81,30.47-.76,1.84-1.53,3.69-1.77,5.7-.29,2.34.21,2.89,2.51,2.89,3.38.02,6.77-.09,10.13.02,1.67.05,2.52-.57,3.09-2.06,1.32-3.4,2.97-6.63,4.98-9.69,2.56-3.9,5.67-7.39,9.31-10.17,6.06-4.65,12.97-7.68,20.59-8.9.27,0,.55,0,.82-.02,13.95-1.53,25.97,2.56,35.96,12.42,4.45,4.38,7.75,9.57,9.89,15.44,3.04,8.28,3.11,16.78,1.84,25.38-.17,1.2-.55,2.61.74,3.4,1.31.81,2.35-.15,3.35-.89,8.88-6.61,18.29-6.46,27.53-1.32,19.46,10.8,20.83,38.49,2.83,51.54-5.22,3.8-11.04,5.86-17.38,6.15-6.89.31-13.79.14-20.68.17h-1.06c-4.15-.05-8.3-.09-12.45-.08-1.28,0-2.49.57-3.33,1.54l-11.2,13c16.37.01,32.74.03,49.1.04,1.79,0,3.57-.12,5.34-.41,22.1-3.59,37.92-20.75,39.11-43.35.48-9-1.55-17.42-6.13-25.3Z"/>
        <path class="cls-10" d="m106.99,28.65c2.97.03,5.93.09,8.9,0,2.13-.05,3.09-1.08,3.13-3.26.05-2.83.05-5.65,0-8.48-.03-1.98-1.08-3.13-3.04-3.18-3.02-.09-6.06-.07-9.1,0-1.79.03-2.8,1.05-2.85,2.87-.05,1.44,0,2.9,0,4.35h-.02c0,1.58-.05,3.18,0,4.76.07,1.89,1.08,2.94,2.99,2.95Z"/>
        <rect class="cls-16" x="120.69" y="53.95" width="12" height="12" rx="2.28" ry="2.28"/>
        <rect class="cls-11" x="88.19" y="35.45" width="12" height="12" rx="2.28" ry="2.28"/>
        <path class="cls-7" d="m148.83,127.97c-3.89,0-7.78.04-11.67.08h-1.06c-6.89-.03-13.79.14-20.68-.17-6.34-.29-12.16-2.35-17.38-6.15-18-13.05-16.63-40.74,2.83-51.54,3.51-1.95,7.05-3.18,10.57-3.59.84-.1,1.47-.84,1.47-1.68v-11.72c0-.96-.8-1.74-1.76-1.71-3.39.11-6.73.95-10,2.03-10.67,3.56-18.72,10.22-24.42,19.97h0c-4.59,7.88-6.61,16.3-6.13,25.3,1.19,22.6,17,39.76,39.11,43.35,1.77.29,3.56.41,5.34.41,15.13-.01,30.26-.02,45.39-.04,1.46,0,2.24-1.71,1.29-2.82l-8.26-9.6c-1.16-1.34-2.84-2.13-4.62-2.13Z"/>
      </g>
      <g>
        <path class="cls-2" d="m78.27,212.97c-.07-11.24,8.3-19.68,19.57-19.76,11.16-.08,19.74,8.32,19.81,19.39.07,11.29-8.34,19.81-19.61,19.88-11.3.07-19.73-8.23-19.78-19.5h.01Zm6.48-.1c.1,8.06,5.75,13.76,13.51,13.64,7.53-.12,13.03-6.08,12.91-13.98-.1-7.66-5.96-13.55-13.38-13.45-7.42.09-13.13,6.14-13.04,13.79Z"/>
        <path class="cls-2" d="m166.53,217.86c0-4.26.03-8.52-.01-12.77,0-.82.17-1.14,1.06-1.08,1.41.08,2.85.08,4.26-.03.95-.07,1.12.26,1.12,1.14-.04,6.36-.03,12.73-.03,19.09,0,1.67,0,1.7,1.74,1.67,3.04-.04,6.12.3,9.15-.25,6.6-1.18,10.65-6.08,10.62-12.73-.03-6.83-4-11.67-10.6-12.92-1.96-.38-3.95-.29-5.92-.29-3.44,0-6.89,0-10.32.08-.88.03-1.08-.22-1.05-1.07.08-1.37.03-2.76,0-4.13,0-.5.07-.8.69-.77,5.63.13,11.28-.34,16.88.26,9.03.95,16.01,8.1,16.66,16.95.72,9.84-4.68,17.59-13.94,20.04-1.92.51-3.87.78-5.85.77-4.47-.03-8.95-.05-13.42-.03-.8,0-1.1-.14-1.08-1.03.05-4.3.03-8.6.03-12.9h.03-.01Z"/>
        <path class="cls-2" d="m124.97,206.32c0-3.79.03-7.57-.03-11.36,0-.86.13-1.23,1.1-1.16,1.41.09,2.85.09,4.26,0,.97-.07,1.08.3,1.08,1.16-.03,6.46,0,12.9.01,19.35,0,1.69.09,3.36.5,4.99,1.15,4.64,4.76,7.32,9.57,7.13,4.89-.18,8.04-3.02,8.94-8.02.21-1.19.29-2.39.29-3.59.01-6.53.07-13.08.01-19.61,0-1.24.38-1.5,1.52-1.42,1.37.09,2.76.07,4.13,0,.71-.03.86.21.86.88-.04,7.27-.04,14.53-.08,21.81,0,1.82-.38,3.58-.91,5.32-2.64,8.55-10.23,11.3-16.95,10.64-8.95-.89-13.47-6.85-14.11-14.49-.33-3.84-.16-11.6-.2-11.6h.01Z"/>
        <path class="cls-2" d="m7.67,208.82c3.29-12.68,16.66-19.26,28.38-13.98,2.26,1.02,4.23,2.43,5.81,4.39.48.6.48.97-.1,1.48-1.11.95-2.21,1.92-3.19,3.01-.6.67-.81.35-1.24-.12-4.36-4.78-11.28-5.83-16.82-2.59-5.34,3.12-7.75,10.15-5.63,16.5,1.99,5.98,7.63,9.57,13.93,8.95,3.5-.34,6.47-1.69,8.79-4.33.59-.68.95-.57,1.52-.03.88.88,1.79,1.75,2.74,2.54.63.52.57.88.07,1.44-3.36,3.72-7.57,5.71-12.52,6.19-2.68.26-5.32-.17-7.97-.43-1.37-.99-3.08-1.24-4.52-2.2-6.17-4.1-9.54-9.63-9.34-17.17.03-.97.26-1.96-.09-2.91.05-.17.1-.33.16-.5.12-.05.14-.13.07-.25h-.04Z"/>
        <path class="cls-2" d="m49.27,212.71c0-5.93.04-11.86-.04-17.8,0-1.05.31-1.22,1.22-1.16,1.33.08,2.67.1,4,.01.99-.07,1.19.26,1.19,1.22-.03,9.8.03,19.61-.04,29.41,0,1.36.41,1.59,1.63,1.58,5.89-.05,11.79,0,17.68-.01.86,0,1.23.16,1.16,1.11-.09,1.28-.05,2.57,0,3.87.03.69-.21.86-.86.86-8.35-.01-16.69-.03-25.04,0-.86,0-.84-.41-.84-1.02,0-6.02-.05-18.06-.07-18.06h0Z"/>
        <path class="cls-8" d="m7.45,209.56c.35.95.12,1.95.09,2.91-.2,7.54,3.18,13.07,9.34,17.17,1.44.95,3.15,1.2,4.52,2.2-.25.04-.5.13-.74.13-6.57-.03-13.15-.07-19.71-.08-.68,0-1.18.07-.85-.95,2.18-6.78,4.27-13.59,6.77-20.25.14-.39.18-.85.57-1.11h0Z"/>
        <path class="cls-8" d="m350.09,193.96c-6.78,5.07-20.52,15.35-20.52,15.35,0,0,1.63-3.57,2.46-5.15,1.65-3.2,3.42-6.34,5.1-9.53.39-.74.9-1.12,1.7-1.12h10.05c.37,0,.76.04,1.22.43h0Z"/>
        <path class="cls-6" d="m238.9,227.08v3.74c0,.62-.5,1.12-1.13,1.12l-14.1-.02c2.61-2.13,5.28-4.14,8.01-6.01,2.2.01,4.31.03,6.11.04.62,0,1.11.51,1.11,1.13Z"/>
        <path class="cls-6" d="m252.83,230.67c0,.93-.22,1.32-1.22,1.28-1.5-.08-3-.04-4.5-.01-.62,0-.96-.15-.97-.85l-.04-13.65c2.2-1.08,4.43-2.08,6.69-2.99.01,6.19.02,13.59.04,16.22Z"/>
        <path class="cls-6" d="m277.93,207.96c-.32.49-.54.83-.54.84-2.78,4.32-5.57,8.65-8.36,12.97-.44.68-.32.42-1.28,2.08-.85,1.47-2.19,1.38-2.96.08l-7.17-11.29c2-.7,4.02-1.33,6.05-1.88.6.91,1.66,2.56,2.21,3.58.47.86.76.96,1.31.02.39-.69,1.68-2.73,3.26-5.22,2.47-.49,4.96-.89,7.48-1.18Z"/>
        <path class="cls-6" d="m286.62,230.71c.01.85-.17,1.25-1.14,1.21-1.59-.06-3.18-.04-4.77-.01-.61,0-.95-.13-.94-.85.06-7.22.07-14.45.11-21.68,0-.09.01-.8.02-1.63,2.2-.21,4.41-.35,6.64-.4.02,7.87.05,21.17.08,23.36Z"/>
        <path class="cls-6" d="m322.95,206.09c-.42.64-.83,1.28-1.24,1.91-.97,1.5-1.9,2.94-2.73,4.23-1.42,2.2-2.55,3.94-3.06,4.71-.51.78-.8,1.54-.79,2.49.02,1.81,0,7.28-.03,12.36,0,.3-.24.53-.53.53h-5.71c-.29,0-.53-.24-.53-.53.02-5.08.03-10.52.04-12.12.01-.77-.21-1.53-.61-2.18l-5.76-9.25-.92-1.48c2.85,1.45,5.84,2.32,8.93,2.51.12.2.22.37.31.51.21.34.33.54.33.54,1.42,1.81,1.57,1.96,2.56.18.11-.18.22-.39.34-.61,0-.01.16-.28.44-.73,2.08-.25,4.11-.8,6.07-1.62.98-.42,1.95-.9,2.89-1.45Z"/>
        <g>
          <path class="cls-4" d="m231.68,225.91c-2.73,1.87-5.4,3.88-8.01,6.01l-13.45-.02c-.74,0-1.34-.6-1.35-1.34,0-1.71-.02-4.87-.04-8.19,2.16-1.27,4.34-2.48,6.56-3.62-.01.74-.01,1.62-.01,2.5-.01,1.83-.02,3.7-.03,4.57,1.44.02,9.32.05,16.33.09Z"/>
          <path class="cls-4" d="m232.9,212.9c0,1.53-1.24,2.77-2.77,2.76-3.02,0-6.03-.01-8.45-.01,3.49-1.61,7.04-3.09,10.65-4.43.35.46.57,1.05.57,1.68Z"/>
          <path class="cls-4" d="m252.79,214.45c-2.26.91-4.49,1.91-6.69,2.99l-.03-10.54c2.21-.57,4.44-1.1,6.69-1.57.02,1.17.02,4.86.03,9.12Z"/>
          <path class="cls-4" d="m263.67,210.76c-2.03.55-4.05,1.18-6.05,1.88l-4.66-7.35c2.13-.44,4.27-.84,6.42-1.18,1.95,3.04,3.86,5.99,3.86,5.99,0,0,.17.26.43.66Z"/>
          <path class="cls-4" d="m274.64,202.51s4.83-.19,7.26-.19c1.56,0,3.11.03,4.66.08,0,.45-.02.9-.03,1.35v.04c0,.96.01,2.17.01,3.56-2.23.05-4.44.19-6.64.4v-.43c0-1-.03-2.06-.07-2.19h0s-.03-.01-.03-.01c-.51.77-1.33,2.02-1.87,2.84-2.52.29-5.01.69-7.48,1.18,1.31-2.07,4.19-6.63,4.19-6.63Z"/>
          <path class="cls-4" d="m310.01,209.27c-3.09-.19-6.08-1.06-8.93-2.51l-2.13-3.41c2.75.32,5.47.73,8.18,1.23,1.18,1.92,2.23,3.65,2.88,4.69Z"/>
        </g>
        <g>
          <path class="cls-12" d="m286.63,197.32c-.01,1.7-.04,3.39-.07,5.08-1.55-.05-3.1-.08-4.66-.08-2.43,0-4.86.06-7.26.19,1.73-2.75,3.22-5.16,3.77-6.18.5-.92.85-1.62,1.09-2.11.25-.53.77-.84,1.35-.82,1.02.04,2.67.25,3.92.43,1,.14,1.76.97,1.82,1.98.03.54.05,1.09.04,1.51Z"/>
          <path class="cls-12" d="m307.13,204.58c-2.71-.5-5.43-.91-8.18-1.23l-5.59-8.98c-.31-.48-.19-.72.39-.67,2.07.15,4.12.13,6.19-.01.32-.03.6.08.77.37.91,1.5,3.94,6.47,6.42,10.52Z"/>
          <path class="cls-12" d="m259.38,204.11c-2.15.34-4.29.74-6.42,1.18l-.2-.31v.35c-2.25.47-4.48,1-6.69,1.57l-.04-12.27c0-.71,1.18-.85,1.31-.85,1.8.03,3.89-.51,5.31.24,1.35.72,2.01,2.75,2.95,4.23.73,1.15,2.27,3.53,3.78,5.86Z"/>
          <path class="cls-12" d="m223.37,193.79h.01c-4.47,0-8.95,0-13.42,0-.65,0-1.15-.05-1.15.89.04,3.74.03,7.49,0,11.22,0,.61.21.82.82.82,1.62-.03,3.25-.04,4.89.01.8.03.94-.33.91-1.01-.04-1.37-.04-2.76-.04-4.13.01-2.14-.25-1.88,1.82-1.88,5.87,0,14.39,0,20.57.02.62,0,1.12-.5,1.12-1.12v-3.72c0-.62-.5-1.13-1.12-1.12-4.25.03-10.59.01-14.41.01Z"/>
          <path class="cls-12" d="m232.33,211.22c-3.61,1.34-7.16,2.82-10.65,4.43-2.73,0-4.71,0-5.1,0-.9,0-1.19.36-1.19,1.32v1.79c-2.22,1.14-4.4,2.35-6.56,3.62-.02-4.82-.05-9.97-.08-11.6,0-.76.51-.66.98-.66,0,0,10.97.02,20.42.03.76,0,1.45.31,1.95.81.08.08.16.17.23.27Z"/>
          <path class="cls-12" d="m330.55,194.45c-1.31,1.95-4.51,6.86-7.6,11.64-.94.55-1.91,1.03-2.89,1.45-1.96.82-3.99,1.37-6.07,1.62.38-.62.97-1.6,1.68-2.77,2.37-3.91,6.01-9.92,7.05-11.64.44-.71.91-1.01,1.76-.97,1.84.07,3.69.01,5.54.03.4,0,1.04-.09.53.64Z"/>
        </g>
      </g>
    </g>
  </g>
</svg>