<?xml version="1.0" encoding="UTF-8"?>
<svg id="Layer_2" data-name="Layer 2" xmlns="http://www.w3.org/2000/svg" xmlns:xlink="http://www.w3.org/1999/xlink" viewBox="0 0 209.07 142.55">
  <defs>
    <style>
      .cls-1 {
        fill: url(#linear-gradient-2);
      }

      .cls-2 {
        fill: url(#linear-gradient-6);
      }

      .cls-3 {
        fill: url(#linear-gradient-10);
      }

      .cls-4 {
        fill: url(#linear-gradient-5);
      }

      .cls-5 {
        fill: url(#linear-gradient-7);
      }

      .cls-6 {
        fill: url(#linear-gradient-9);
      }

      .cls-7 {
        fill: url(#linear-gradient-3);
      }

      .cls-8 {
        fill: url(#linear-gradient);
      }

      .cls-9 {
        fill: url(#linear-gradient-4);
      }

      .cls-10 {
        fill: url(#linear-gradient-8);
      }
    </style>
    <linearGradient id="linear-gradient" x1="104.24" y1="161.25" x2="106.59" y2="-71.96" gradientUnits="userSpaceOnUse">
      <stop offset="0" stop-color="#fff"/>
      <stop offset=".57" stop-color="#651fcb"/>
      <stop offset="1" stop-color="#116bfc"/>
    </linearGradient>
    <linearGradient id="linear-gradient-2" x1="104.29" y1="161.26" x2="106.64" y2="-71.96" xlink:href="#linear-gradient"/>
    <linearGradient id="linear-gradient-3" x1="104.17" y1="161.25" x2="106.52" y2="-71.96" xlink:href="#linear-gradient"/>
    <linearGradient id="linear-gradient-4" x1="104.1" y1="161.25" x2="106.45" y2="-71.96" xlink:href="#linear-gradient"/>
    <linearGradient id="linear-gradient-5" x1="103.59" y1="161.25" x2="105.94" y2="-71.97" xlink:href="#linear-gradient"/>
    <linearGradient id="linear-gradient-6" x1="-117.73" y1="74.23" x2="216.44" y2="70.31" gradientUnits="userSpaceOnUse">
      <stop offset="0" stop-color="#0d6efd"/>
      <stop offset="1" stop-color="#7b1fe4"/>
    </linearGradient>
    <linearGradient id="linear-gradient-7" x1="-118.33" y1="23.05" x2="215.84" y2="19.14" xlink:href="#linear-gradient-6"/>
    <linearGradient id="linear-gradient-8" x1="-117.88" y1="61.99" x2="216.3" y2="58.07" xlink:href="#linear-gradient-6"/>
    <linearGradient id="linear-gradient-9" x1="-118.1" y1="43.11" x2="216.08" y2="39.2" xlink:href="#linear-gradient-6"/>
    <linearGradient id="linear-gradient-10" x1="-114.94" y1="99.1" x2="212.11" y2="95.27" xlink:href="#linear-gradient-6"/>
  </defs>
  <g id="Layer_1-2" data-name="Layer 1">
    <g>
      <g>
        <rect class="cls-8" x="93.05" y="130.04" width="22.97" height="5.24" rx="1.17" ry="1.17"/>
        <path class="cls-1" d="m111.73,137.58c-.27,1.77-1.59,3.29-3.47,4.16-1.09.52-2.37.81-3.73.81s-2.64-.29-3.73-.81c-1.88-.87-3.2-2.39-3.47-4.16.09-.19.27-.31.49-.31h13.41c.22,0,.4.12.49.31Z"/>
        <rect class="cls-7" x="94.76" y="123.03" width="19.55" height="5.24" rx="1.17" ry="1.17"/>
        <rect class="cls-9" x="90.43" y="114.92" width="28.21" height="6.45" rx="1.17" ry="1.17"/>
        <path class="cls-4" d="m126.35,46.36c-11.46-12-32.26-12-43.72,0-5.59,5.58-8.74,13.41-8.65,21.57.05,1.6.21,3.18.49,4.73.23,1.31.54,2.59.93,3.85,1.02,3.39,2.6,6.58,4.68,9.42.24.34.48.68.72,1.02.02.02.04.06.06.09.31.41.6.84.89,1.27.1.14.19.28.28.42,4.02,6.15,6.49,13.79,6.71,22.1v.02c-.01.45-.01,1.19-.01,1.78,0,.52.42.93.94.93h29.77c.52,0,.94-.42.94-.94v-1.25c.14-8.69,2.7-16.7,6.98-23.03,0,0,.21-.39.35-.59.41-.59.85-1.22,1.3-1.88,2.02-2.76,3.56-5.85,4.59-9.13.71-2.23,1.18-4.55,1.39-6.91.06-.65.1-1.31.12-1.97.04-8.15-3.13-15.95-8.75-21.49Zm-.02,37.32l-1.15,1.74-.4.67c-4.29,6.4-7.02,14.33-7.56,22.97l-.06,1.07h-1.83v-17.59l5.67-9.07-.02-7.68c0-.28.18-.52.44-.61,2.1-.82,3.6-2.86,3.6-5.26,0-3.33-2.88-5.98-6.29-5.6-2.6.29-4.7,2.42-4.97,5.01-.27,2.63,1.26,4.93,3.51,5.84.25.1.43.33.43.6l-.06,7.71-5.58,9.07v17.59h-1.89v-33.71l-3.16-8.26-.06-7.71c0-.27.18-.51.44-.6.5-.2.96-.47,1.37-.8h0c1.46-1.14,2.34-2.99,2.13-5.04-.26-2.6-2.37-4.72-4.97-5.01-3.41-.38-6.29,2.27-6.29,5.6,0,1.88.91,3.53,2.31,4.55.4.29.82.53,1.28.71.26.1.44.33.44.61l-.02,7.68,3.25,8.26v33.71h-4.84v-23.47c0-.27.18-.51.44-.6,2.1-.82,3.6-2.86,3.6-5.26,0-3.33-2.89-5.98-6.3-5.6-2.6.29-4.72,2.44-4.97,5.05-.25,2.64,1.31,4.94,3.57,5.82.26.1.44.33.44.6v23.47h-1.74v-17.59l-5.58-9.07-.06-7.71c0-.27.17-.51.43-.6,2.25-.9,3.78-3.21,3.51-5.84-.27-2.6-2.38-4.72-4.97-5.01-3.41-.38-6.3,2.27-6.3,5.6,0,2.4,1.5,4.44,3.6,5.26.26.1.44.33.44.61l-.02,7.68,5.66,9.07v17.59h-1.84c-.35-9.2-3.17-17.64-7.74-24.38l-1.39-2.08c-3.26-4.15-5.05-9.09-5.43-14.11-.58-7.71,2.18-15.59,8.06-21.03,9.94-10.42,28.31-10.42,38.24,0,5.27,4.88,8.04,11.7,8.13,18.62.1,5.83-1.71,11.71-5.49,16.53Zm-6.97-11.34c-1.34,0-2.42-1.08-2.42-2.42s1.08-2.42,2.42-2.42,2.42,1.09,2.42,2.42-1.08,2.42-2.42,2.42Zm-14.09-15.32c-1.34,0-2.42-1.08-2.42-2.42s1.08-2.42,2.42-2.42,2.42,1.09,2.42,2.42-1.08,2.42-2.42,2.42Zm-4.84,26.2c-1.34,0-2.42-1.08-2.42-2.42s1.08-2.42,2.42-2.42,2.42,1.08,2.42,2.42-1.08,2.42-2.42,2.42Zm-10.67-10.88c-1.33,0-2.42-1.08-2.42-2.42s1.09-2.42,2.42-2.42,2.42,1.09,2.42,2.42-1.07,2.42-2.42,2.42Z"/>
      </g>
      <path class="cls-2" d="m202.86,73.48h0c-5.7-9.76-13.76-16.42-24.42-19.97-4.36-1.44-8.86-2.47-13.41-1.87-2.16.29-2.52-.27-2.77-2.08-1.01-7.87-3.64-15.13-7.88-21.9-6.7-10.7-15.72-18.53-27.36-23.29C117.19.35,106.98-.83,96.46.56c-7.47.82-14.43,3.23-20.92,6.96-12.26,7.04-20.46,17.55-25.81,30.47-.76,1.84-1.53,3.69-1.77,5.7-.29,2.34.21,2.89,2.51,2.89,3.38.02,6.77-.09,10.13.02,1.67.05,2.52-.57,3.09-2.06,1.32-3.4,2.97-6.63,4.98-9.69,2.56-3.9,5.67-7.39,9.31-10.17,6.06-4.65,12.97-7.68,20.59-8.9.27,0,.55,0,.82-.02,13.95-1.53,25.97,2.56,35.96,12.42,4.45,4.38,7.75,9.57,9.89,15.44,3.04,8.28,3.11,16.78,1.84,25.38-.17,1.2-.55,2.61.74,3.4,1.31.81,2.35-.15,3.35-.89,8.88-6.61,18.29-6.46,27.53-1.32,19.46,10.8,20.83,38.49,2.83,51.54-5.22,3.8-11.04,5.86-17.38,6.15-6.89.31-13.79.14-20.68.17h-1.06c-4.15-.05-8.3-.09-12.45-.08-1.28,0-2.49.57-3.33,1.54l-11.2,13c16.37.01,32.74.03,49.1.04,1.79,0,3.57-.12,5.34-.41,22.1-3.59,37.92-20.75,39.11-43.35.48-9-1.55-17.42-6.13-25.3Z"/>
      <path class="cls-5" d="m36.47,28.65c2.97.03,5.93.09,8.9,0,2.13-.05,3.09-1.08,3.13-3.26.05-2.83.05-5.65,0-8.48-.03-1.98-1.08-3.13-3.04-3.18-3.02-.09-6.06-.07-9.1,0-1.79.03-2.8,1.05-2.85,2.87-.05,1.44,0,2.9,0,4.35h-.02c0,1.58-.05,3.18,0,4.76.07,1.89,1.08,2.94,2.99,2.95Z"/>
      <rect class="cls-10" x="50.18" y="53.95" width="12" height="12" rx="2.28" ry="2.28"/>
      <rect class="cls-6" x="17.68" y="35.45" width="12" height="12" rx="2.28" ry="2.28"/>
      <path class="cls-3" d="m78.31,127.97c-3.89,0-7.78.04-11.67.08h-1.06c-6.89-.03-13.79.14-20.68-.17-6.34-.29-12.16-2.35-17.38-6.15-18-13.05-16.63-40.74,2.83-51.54,3.51-1.95,7.05-3.18,10.57-3.59.84-.1,1.47-.84,1.47-1.68v-11.72c0-.96-.8-1.74-1.76-1.71-3.39.11-6.73.95-10,2.03-10.67,3.56-18.72,10.22-24.42,19.97h0C1.61,81.37-.41,89.78.07,98.78c1.19,22.6,17,39.76,39.11,43.35,1.77.29,3.56.41,5.34.41,15.13-.01,30.26-.02,45.39-.04,1.46,0,2.24-1.71,1.29-2.82l-8.26-9.6c-1.16-1.34-2.84-2.13-4.62-2.13Z"/>
    </g>
  </g>
</svg>